<!DOCTYPE svg PUBLIC "-//W3C//DTD SVG 20010904//EN" "http://www.w3.org/TR/2001/REC-SVG-20010904/DTD/svg10.dtd">
<svg version="1.0" xmlns="http://www.w3.org/2000/svg" width="212px" height="70px" viewBox="0 0 3000 990" preserveAspectRatio="xMidYMid meet">
<g id="layer101" fill="#ffffff" stroke="none">
 <path d="M512 815 c-190 -59 -249 -279 -110 -412 71 -68 203 -96 304 -63 144 47 221 199 165 325 -21 48 -21 51 -5 81 27 50 8 66 -75 63 -36 0 -84 4 -106 10 -53 14 -120 13 -173 -4z m185 -70 c19 -8 44 -15 54 -15 11 0 19 -7 19 -16 0 -9 9 -27 20 -41 67 -86 26 -214 -85 -264 -85 -39 -221 -10 -275 58 -70 89 -41 207 65 265 58 32 143 37 202 13z"/>
 <path d="M476 604 c-19 -19 -20 -25 -3 -48 19 -26 61 -18 65 12 7 44 -32 67 -62 36z"/>
 <path d="M580 606 c-6 -8 -10 -25 -8 -38 2 -18 9 -23 33 -23 26 0 30 4 33 29 5 41 -32 62 -58 32z"/>
 <path d="M686 604 c-29 -29 -12 -64 31 -64 27 0 42 42 23 65 -16 19 -35 19 -54 -1z"/>
 <path d="M1167 714 c-4 -4 -7 -76 -7 -161 l0 -153 73 0 c64 0 76 3 96 24 50 53 31 155 -34 176 -18 6 -44 8 -58 4 -25 -6 -26 -5 -29 52 -2 44 -7 60 -18 62 -9 1 -19 0 -23 -4z m127 -170 c33 -32 8 -104 -35 -104 -40 0 -49 11 -49 60 0 29 5 50 13 53 25 11 56 7 71 -9z"/>
 <path d="M1008 599 c-18 -7 -28 -18 -28 -31 0 -18 4 -19 49 -13 69 9 76 -10 12 -36 -53 -22 -67 -43 -57 -84 6 -25 34 -38 78 -37 46 1 69 12 66 30 -3 13 -14 17 -47 17 -56 0 -64 19 -14 35 49 16 73 37 73 65 0 46 -74 76 -132 54z"/>
 <path d="M1433 596 c-17 -8 -36 -23 -42 -35 -16 -29 -13 -103 4 -128 18 -26 71 -43 109 -36 35 7 76 57 76 94 l0 29 -75 0 c-41 0 -75 4 -75 9 0 20 31 33 62 27 57 -11 71 -11 75 1 5 15 -34 41 -73 48 -16 3 -43 -1 -61 -9z m82 -136 c-20 -22 -55 -26 -73 -8 -22 22 -13 28 40 28 50 0 51 0 33 -20z"/>
 <path d="M1623 599 c-29 -15 -38 -55 -19 -85 15 -22 69 -44 110 -44 16 0 17 -2 5 -16 -13 -16 -50 -15 -90 1 -11 4 -19 0 -23 -12 -10 -26 20 -43 79 -43 74 0 85 15 85 118 l0 82 -27 -1 c-16 0 -44 2 -63 5 -19 3 -45 1 -57 -5z m76 -40 c20 -7 31 -18 31 -30 0 -23 -10 -24 -55 -5 -36 15 -45 30 -22 39 6 3 12 6 13 6 1 1 15 -4 33 -10z"/>
 <path d="M2583 596 c-40 -18 -53 -43 -53 -101 0 -72 37 -101 120 -96 35 3 82 56 78 89 -3 26 -5 27 -75 30 -40 2 -73 7 -73 11 0 20 31 33 62 27 57 -11 71 -11 75 1 5 15 -34 41 -73 48 -16 3 -43 -1 -61 -9z m82 -136 c-20 -22 -55 -26 -73 -8 -22 22 -13 28 40 28 50 0 51 0 33 -20z"/>
 <path d="M2793 603 l-43 -4 0 -160 0 -159 25 0 c24 0 25 3 25 59 l0 60 51 3 c66 4 95 36 93 104 -2 77 -49 107 -151 97z m89 -60 c48 -44 -4 -121 -66 -97 -20 8 -23 100 -3 107 24 10 51 7 69 -10z"/>
 <path d="M1800 440 l0 -160 25 0 c25 0 25 1 25 90 0 50 4 90 8 90 5 0 21 -13 37 -30 26 -27 75 -42 75 -22 0 4 -18 26 -40 47 l-40 39 45 46 c25 25 45 49 45 53 0 19 -48 3 -86 -29 l-44 -35 0 35 c0 32 -3 36 -25 36 l-25 0 0 -160z"/>
 <path d="M2000 589 c0 -6 36 -51 80 -100 44 -49 80 -96 80 -104 0 -21 -36 -55 -59 -55 -10 0 -30 9 -45 21 -28 22 -56 20 -56 -5 0 -29 50 -56 102 -56 63 0 98 31 98 85 0 48 -12 70 -73 133 l-51 52 62 0 c55 0 62 2 62 20 0 19 -7 20 -100 20 -64 0 -100 -4 -100 -11z"/>
 <path d="M2252 513 c-38 -104 -39 -115 -10 -111 16 2 26 17 41 62 l20 59 25 -62 c30 -76 47 -77 78 -1 l22 55 15 -36 c8 -20 18 -45 21 -57 5 -15 16 -22 32 -22 13 0 24 2 24 5 0 3 -16 48 -36 100 -23 58 -42 95 -51 95 -8 0 -26 -27 -41 -60 l-27 -61 -24 61 c-34 85 -49 80 -89 -27z"/>
 <path d="M190 570 c0 -6 7 -21 16 -35 14 -22 14 -26 -1 -49 -44 -67 -38 -164 16 -229 87 -105 277 -109 374 -7 25 26 27 32 15 40 -8 5 -27 10 -42 10 -44 0 -125 35 -173 74 -45 37 -95 123 -95 163 0 16 -8 27 -26 33 -33 13 -84 13 -84 0z"/>
 </g>

</svg>