<svg xmlns="http://www.w3.org/2000/svg" height="32" viewBox="0 0 496 496" width="32"><g transform="matrix(.860058 0 0 .860058 34.7055 34.7055)"><path d="M248 8C115.453 8 8 115.453 8 248s107.453 240 240 240 240-107.453 240-240S380.547 8 248 8zm0 432c-106.04 0-192-85.96-192-192S141.96 56 248 56s192 85.96 192 192-85.96 192-192 192zm0 0" fill="#414042"/><path d="M248 56C141.96 56 56 141.96 56 248s85.96 192 192 192 192-85.96 192-192S354.04 56 248 56zm80 272H168V168h160zm0 0" fill="#d1d3d4"/><path d="M168 168h160v160H168zm0 0" fill="#d80027"/><path d="M248 496C111.035 496 0 384.965 0 248S111.035 0 248 0s248 111.035 248 248c-.16 136.902-111.098 247.84-248 248zm0-480C119.87 16 16 119.87 16 248s103.87 232 232 232 232-103.87 232-232c-.14-128.07-103.93-231.86-232-232zm0 432c-110.457 0-200-89.543-200-200S137.543 48 248 48s200 89.543 200 200c-.125 110.406-89.594 199.875-200 200zm0-384C146.38 64 64 146.38 64 248s82.38 184 184 184 184-82.38 184-184c-.113-101.574-82.426-183.887-184-184zm80 272H168a8 8 0 0 1-8-8V168a8 8 0 0 1 8-8h160a8 8 0 0 1 8 8v160a8 8 0 0 1-8 8zm-152-16h144V176H176zm0 0" fill="#231f20"/></g></svg>