<svg xmlns="http://www.w3.org/2000/svg" width="16" height="16"><path d="M12.116 6.242V8.88c0 1.758-1.83 3.516-3.66 3.516v1.758H11.2v.88H4.8v-.88h2.744v-1.758c-1.83 0-3.66-1.758-3.66-3.516V6.242H4.8V8.88c0 1.318 1.372 2.637 2.744 2.637h.915c1.372 0 2.744-1.318 2.744-2.637V6.242h.915zM7.547.968h.906c1.016 0 1.834.784 1.834 1.75v6.167c0 .96-.82 1.75-1.834 1.75h-.906c-1.016 0-1.834-.784-1.834-1.75V2.72c0-.96.82-1.75 1.834-1.75zm-.92.88v.88h.915v-.88h-.915zm1.83 0v.88h.915v-.88h-.915zm-2.744.88v.88h.915v-.88h-.915zm1.83 0v.88h.915v-.88h-.915zm1.83 0v.88h.915v-.88h-.915zm-2.744.88v.88h.915v-.88h-.915zm1.83 0v.88h.915v-.88h-.915zm-2.744.88v.88h.915v-.88h-.915zm1.83 0v.88h.915v-.88h-.915zm1.83 0v.88h.915v-.88h-.915zm-2.744.88v.88h.915v-.88h-.915zm1.83 0v.88h.915v-.88h-.915zm0 0"/></svg>