<svg xmlns="http://www.w3.org/2000/svg" width="32" height="32" viewBox="0 0 24 24"><path d="M24 12a12 12 0 1 0-24 0 12 12 0 1 0 24 0zm0 0" fill="rgb(87.843137%,30.980392%,37.254902%)"/><path d="M12.55 6.234c-.168-.1-.367-.082-.523.023l-4.6 2.99H5.723a.51.51 0 0 0-.512.512v4.484a.51.51 0 0 0 .512.512h1.703l4.602 2.988a.5.5 0 0 0 .277.082.53.53 0 0 0 .246-.06.53.53 0 0 0 .266-.453V6.688a.52.52 0 0 0-.266-.453zM17.2 12l1.47-1.47c.172-.172.172-.445 0-.617s-.445-.168-.613 0l-1.473 1.47-1.47-1.47c-.168-.168-.445-.168-.613 0s-.172.445 0 .617L15.96 12l-1.47 1.47c-.172.172-.172.445 0 .617.082.086.195.13.305.13a.43.43 0 0 0 .309-.129l1.47-1.47 1.473 1.47c.082.086.195.13.305.13s.227-.043.3-.13c.172-.172.172-.445 0-.617zm0 0" fill="rgb(100%,100%,100%)"/></svg>